<svg width="91" height="87" viewBox="0 0 91 87" fill="none" xmlns="http://www.w3.org/2000/svg">
<path d="63.1494 0C65.0133 0 66.5243 1.51113 66.5244 3.375V8.01074C71.9228 9.42728 76.3943 11.6061 79.957 14.7725C87.5932 21.5593 90.2207 32.0987 90.2207 46.2783C90.2207 60.4577 87.593 70.9964 79.957 77.7832C72.4417 84.4625 60.8835 86.75 45.1084 86.75C29.3352 86.75 17.7775 84.4626 10.2627 77.7832C2.62736 70.9964 4.37382e-05 60.4577 0 46.2783C2.46189e-05 32.0987 2.62716 21.5592 10.2627 14.7725C13.8341 11.5981 18.3192 9.41725 23.7354 8.00098V3.375C23.7355 1.51113 25.2465 0 27.1104 0C28.974 0.00026385 30.4852 1.51129 30.4854 3.375V6.68066C34.8775 6.07018 39.7499 5.80566 45.1084 5.80566C50.4846 5.80568 55.3709 6.07191 59.7744 6.68652V3.375C59.7745 1.51113 61.2855 0 63.1494 0ZM27.375 54.043C25.166 54.043 23.3752 55.635 23.375 57.5986C23.375 59.5624 25.1659 61.1543 27.375 61.1543C29.5841 61.1543 31.375 59.5624 31.375 57.5986C31.3748 55.635 29.584 54.043 27.375 54.043ZM45.375 54.043C43.166 54.043 41.3752 55.635 41.375 57.5986C41.375 59.5624 43.1659 61.1543 45.375 61.1543C47.5841 61.1543 49.375 59.5624 49.375 57.5986C49.3748 55.635 47.584 54.043 45.375 54.043ZM63.375 54.043C61.166 54.043 59.3752 55.635 59.375 57.5986C59.375 59.5624 61.1659 61.1543 63.375 61.1543C65.5841 61.1543 67.375 59.5624 67.375 57.5986C67.3748 55.635 65.584 54.043 63.375 54.043ZM27.375 37.1543C25.1659 37.1543 23.375 38.7462 23.375 40.71C23.3752 42.6735 25.166 44.2656 27.375 44.2656C29.584 44.2656 31.3748 42.6735 31.375 40.71C31.375 38.7462 29.5841 37.1543 27.375 37.1543ZM45.375 37.1543C43.1659 37.1543 41.375 38.7462 41.375 40.71C41.3752 42.6735 43.166 44.2656 45.375 44.2656C47.584 44.2656 49.3748 42.6735 49.375 40.71C49.375 38.7462 47.5841 37.1543 45.375 37.1543ZM63.375 37.1543C61.1659 37.1543 59.375 38.7462 59.375 40.71C59.3752 42.6735 61.166 44.2656 63.375 44.2656C65.584 44.2656 67.3748 42.6735 67.375 40.71C67.375 38.7462 65.5841 37.1543 63.375 37.1543Z" fill="#D9D9D9"/>
</svg>
