<svg width="88" height="89" viewBox="0 0 88 89" fill="none" xmlns="http://www.w3.org/2000/svg">
<path fill-rule="evenodd" clip-rule="evenodd" d="M44 4C34.8373 4 33.971 19.9594 28.516 25.5981C23.061 31.2368 6.10189 24.7896 3.74564 34.7981C1.39434 44.8117 16.6506 48.2093 18.5316 56.8004C20.4226 65.3916 11.1015 77.4621 19.0662 83.4693C27.031 89.4713 35.6046 75.8862 44 75.8862C52.3954 75.8862 60.969 89.4713 68.9337 83.4693C76.8984 77.4621 67.5823 65.3916 69.4683 56.8004C71.3543 48.2093 86.6056 44.8117 84.2543 34.7981C81.903 24.7896 64.9389 31.2368 59.4889 25.5981C54.0338 19.9594 53.1626 4 44 4Z" stroke="#212121" stroke-width="6.75" stroke-linecap="round" stroke-linejoin="round"/>
</svg>
